<?xml version="1.0" encoding="UTF-8"?>
<svg xmlns="http://www.w3.org/2000/svg" viewBox="0 0 64 64">
  <defs>
    <linearGradient id="bg" x1="0" y1="0" x2="1" y2="1">
      <stop offset="0%" stop-color="#0F172A"/>
      <stop offset="100%" stop-color="#312E81"/>
    </linearGradient>
    <linearGradient id="bull" x1="0" y1="1" x2="1" y2="0">
      <stop offset="0%" stop-color="#10B981"/>
      <stop offset="100%" stop-color="#34D399"/>
    </linearGradient>
  </defs>
  <rect width="64" height="64" rx="14" ry="14" fill="url(#bg)"/>
  <!-- bars -->
  <rect x="14" y="38" width="6" height="14" rx="1.5" fill="#10B981" opacity="0.65"/>
  <rect x="24" y="30" width="6" height="22" rx="1.5" fill="#10B981" opacity="0.8"/>
  <rect x="34" y="22" width="6" height="30" rx="1.5" fill="url(#bull)"/>
  <rect x="44" y="14" width="6" height="38" rx="1.5" fill="url(#bull)"/>
  <!-- trend arrow -->
  <polyline points="14,36 27,28 37,20 50,12" fill="none" stroke="#34D399" stroke-width="3" stroke-linecap="round" stroke-linejoin="round"/>
  <path d="M44 10 L52 10 L52 18" fill="none" stroke="#34D399" stroke-width="3" stroke-linecap="round" stroke-linejoin="round"/>
  <!-- AI spark -->
  <path d="M18 18 L20 14 L22 18 L26 20 L22 22 L20 26 L18 22 L14 20 Z" fill="#A78BFA"/>
</svg>
