<?xml version="1.0" encoding="UTF-8"?>
<svg xmlns="http://www.w3.org/2000/svg" viewBox="0 0 512 512" role="img" aria-label="FinPredict-AI">
  <defs>
    <linearGradient id="bg" x1="0" y1="0" x2="1" y2="1">
      <stop offset="0%" stop-color="#0F172A"/>
      <stop offset="55%" stop-color="#1E1B4B"/>
      <stop offset="100%" stop-color="#312E81"/>
    </linearGradient>
    <linearGradient id="bull" x1="0" y1="1" x2="1" y2="0">
      <stop offset="0%" stop-color="#10B981"/>
      <stop offset="100%" stop-color="#34D399"/>
    </linearGradient>
    <linearGradient id="spark" x1="0" y1="0" x2="1" y2="1">
      <stop offset="0%" stop-color="#A78BFA"/>
      <stop offset="100%" stop-color="#F0ABFC"/>
    </linearGradient>
  </defs>
  <!-- full-bleed bg, no rounding (Android applies the mask) -->
  <rect width="512" height="512" fill="url(#bg)"/>
  <!-- icon kept inside the safe area (≈ centre 80% = 102..410) -->
  <g transform="translate(0 0)">
    <rect x="148" y="280" width="38" height="80" rx="6" fill="#10B981" opacity="0.7"/>
    <rect x="206" y="232" width="38" height="128" rx="6" fill="url(#bull)"/>
    <rect x="264" y="188" width="38" height="172" rx="6" fill="url(#bull)"/>
    <rect x="322" y="148" width="38" height="212" rx="6" fill="url(#bull)"/>
    <polyline points="148,272 215,232 273,188 331,148 388,118"
      fill="none" stroke="url(#bull)" stroke-width="14" stroke-linecap="round" stroke-linejoin="round"/>
    <path d="M364 108 L398 108 L398 142" fill="none" stroke="url(#bull)" stroke-width="14" stroke-linecap="round" stroke-linejoin="round"/>
    <path d="M180 168 L188 144 L196 168 L220 176 L196 184 L188 208 L180 184 L156 176 Z" fill="url(#spark)"/>
  </g>
</svg>
